<svg width="26" height="26" viewBox="0 0 26 26" fill="none" xmlns="http://www.w3.org/2000/svg">
<path d="M4.35029 0C4.87141 0 5.32004 0.415898 5.41973 0.990742L5.4877 1.625H24.5519C25.4718 1.625 26.2059 2.65332 25.9476 3.68977L23.5006 13.4418C23.3239 14.1426 22.7529 14.625 22.1049 14.625H7.73535L8.15225 17.0625H22.114C22.7167 17.0625 23.2015 17.6059 23.2015 18.2812C23.2015 18.9566 22.7167 19.5 22.114 19.5H7.20969C6.72935 19.5 6.28073 19.0836 6.18103 18.5098L3.45032 2.4375H1.08757C0.487141 2.4375 0 1.8916 0 1.21875C0 0.545898 0.487141 0 1.08757 0H4.35029ZM5.80038 23.5625C5.80038 22.2168 6.77466 21.125 7.97552 21.125C9.17639 21.125 10.1507 22.2168 10.1507 23.5625C10.1507 24.9082 9.17639 26 7.97552 26C6.77466 26 5.80038 24.9082 5.80038 23.5625ZM23.2015 23.5625C23.2015 24.9082 22.2272 26 21.0264 26C19.8255 26 18.8512 24.9082 18.8512 23.5625C18.8512 22.2168 19.8255 21.125 21.0264 21.125C22.2272 21.125 23.2015 22.2168 23.2015 23.5625Z" fill="black"/>
</svg>
